<svg xmlns="http://www.w3.org/2000/svg" id="Capa_1" x="0" y="0" viewBox="0 0 404 121.8" xml:space="preserve">
  <style>
    .st1{fill:#fff}
  </style>
  <path d="M62.1 113.8c.3.8.5 1.4.5 1.4s.1-.6.5-1.4c-.2 0-.3.1-.5.1s-.3 0-.5-.1zm-1.2-1.6c0 .8.5 1.4 1.2 1.6-.3-.7-.7-1.5-1.2-2.3v.7zm3.4 0v-.7c-.5.8-.9 1.6-1.2 2.3.7-.2 1.2-.8 1.2-1.6z"/>
  <path d="M62.6 111c-.5-.7-1-1.5-1.7-2.2v2.7c.5.8.9 1.6 1.2 2.3.2 0 .3.1.5.1s.3 0 .5-.1c.3-.7.7-1.5 1.2-2.3v-2.7c-.7.7-1.2 1.5-1.7 2.2z"/>
  <linearGradient id="SVGID_1_" gradientUnits="userSpaceOnUse" x1="21.147" y1="38.65" x2="60.903" y2="38.65" gradientTransform="matrix(1 0 0 -1 0 124)">
    <stop offset=".002" stop-color="#c51a1b"/>
    <stop offset="1" stop-color="#e40138"/>
  </linearGradient>
  <path d="M21.1 61.8v37.9c0 3.5 2.8 6.3 6.3 6.3H54c3 0 5.3 1.3 6.9 2.9V61.8H21.1z" fill="url(#SVGID_1_)"/>
  <path class="st1" d="M64.3 108.9c1.6-1.7 3.9-2.9 6.9-2.9h26.6c3.5 0 6.3-2.8 6.3-6.3V61.8H64.3v47.1z"/>
  <linearGradient id="SVGID_2_" gradientUnits="userSpaceOnUse" x1="88.7" y1="65.6" x2="88.7" y2="109.94" gradientTransform="matrix(1 0 0 -1 0 124)">
    <stop offset=".002" stop-color="#c51a1b"/>
    <stop offset="1" stop-color="#e40138"/>
  </linearGradient>
  <path d="M104.1 58.4V29.8c0-4.1 2.4-8.5 9-9.8-1.4-1.1-2.5-2.2-3.5-3.1-1.6-1.5-3.1-2.9-3.8-2.9H64.3v44.3h39.8v.1z" fill="url(#SVGID_2_)"/>
  <path class="st1" d="M60.9 14H19.4c-.7 0-2.2 1.4-3.8 2.9-1 .9-2.1 2-3.5 3.1 6.5 1.3 9 5.7 9 9.8v28.6h39.8V14z"/>
  <path d="M118.4 19.9c-2.8-2.1-4.9-4-6.6-5.5-2.5-2.3-4.1-3.8-6.1-3.8H19.4c-2 0-3.6 1.5-6.1 3.8-1.7 1.5-3.7 3.4-6.6 5.5-.6.4-.8 1.2-.6 1.9.3.7 1 1.2 1.7 1.2 9 0 9.9 4.8 9.9 6.8v69.9c0 5.3 4.4 9.7 9.7 9.7H54c2.2 0 4 1 5.4 3 1.1 1.6 1.6 3.3 1.6 3.3.2.8.9 1.3 1.6 1.3.8 0 1.5-.5 1.6-1.3 0 0 .4-1.7 1.6-3.3 1.4-2 3.2-3 5.4-3h26.6c5.3 0 9.7-4.4 9.7-9.7V29.8c0-2 1-6.8 9.9-6.8.7 0 1.4-.5 1.6-1.2.2-.7 0-1.5-.6-1.9zM12.2 20c1.4-1.1 2.5-2.2 3.5-3.1 1.6-1.5 3.1-2.9 3.8-2.9H61v44.3H21.1V29.8c0-4.1-2.4-8.5-8.9-9.8zm52.1 92.2c0 .8-.5 1.4-1.2 1.6-.3.8-.5 1.4-.5 1.4s-.1-.6-.5-1.4c-.7-.2-1.2-.9-1.2-1.6v-3.4c-1.6-1.7-3.9-2.9-6.9-2.9H27.4c-3.5 0-6.3-2.8-6.3-6.3V61.8h39.8v47.1c.7.7 1.2 1.4 1.7 2.2.5-.7 1-1.5 1.7-2.2V61.8h39.8v37.9c0 3.5-2.8 6.3-6.3 6.3H71.2c-3 0-5.3 1.3-6.9 2.9v3.3zm39.8-82.4v28.6H64.3V14h41.5c.7 0 2.2 1.4 3.8 2.9 1 .9 2.1 2 3.5 3.1-6.6 1.3-9 5.7-9 9.8z"/>
  <path d="M73.8 93.6v-1.3l3 .1V73.5l-3 .1v-1.4h10.3v1.4l-3-.1v7.8h3.6l6.3-7.8-4 .1v-1.4h9.1v1.4l-3.2-.1-6.2 7.6 8 11.4 2.1-.1v1.3h-10v-1.3l2.7.1-6.7-9.7h-1.6v9.7l3-.1v1.3H73.8v-.1zM40.4 48.2c6.5 0 10.9-2.4 10.9-11.7 0-9.1-4.3-11.4-10.7-11.4-6.5 0-10.8 2.4-10.8 11.7 0 9.1 4.2 11.4 10.6 11.4zm0-21.8c3.9 0 6.2 2 6.2 10.3 0 8-2.3 10.1-6 10.1-3.9 0-6.2-2.1-6.2-10.3 0-8 2.3-10.1 6-10.1z" fill="#909090"/>
  <path d="M40 47.7c6.5 0 10.9-2.4 10.9-11.7 0-9.1-4.3-11.4-10.7-11.4-6.5 0-10.8 2.4-10.8 11.7-.1 9.1 4.2 11.4 10.6 11.4zM40 26c3.9 0 6.2 2 6.2 10.3 0 8-2.3 10.1-6 10.1-3.9 0-6.2-2.1-6.2-10.3C34 28 36.2 26 40 26zm33.4 67.2v-1.3l3 .1V73.1l-3 .1v-1.4h10.3v1.4l-3-.1v7.8h3.6l6.3-7.8-4 .1v-1.4h9.1v1.4l-3.2-.1-6.2 7.6 8 11.4 2.1-.1v1.3h-10V92H89l-6.7-9.7h-1.6V92l3-.1v1.3H73.4z"/>
  <path class="st1" d="M151.8 83.9c-.9 1.9-2.3 3.3-4.1 4.3s-4 1.5-6.5 1.5-4.7-.5-6.5-1.5-3.2-2.5-4.1-4.3c-.9-1.9-1.4-4.1-1.4-6.6v-3.2c0-2.6.5-4.8 1.4-6.7.9-1.9 2.3-3.3 4.1-4.3 1.8-1 4-1.5 6.5-1.5 2.6 0 4.7.5 6.5 1.5 1.8 1 3.2 2.5 4.1 4.3.9 1.9 1.4 4.1 1.4 6.6v3.2c0 2.6-.5 4.8-1.4 6.7zm-5.9-13.8c-.5-1.1-1.1-1.8-1.9-2.4-.8-.5-1.7-.8-2.8-.8s-2 .3-2.8.8-1.4 1.3-1.9 2.4-.7 2.4-.7 3.9v3.3c0 1.6.2 2.9.7 3.9s1.1 1.9 1.9 2.4 1.8.8 2.8.8c1.1 0 2-.3 2.8-.8s1.4-1.3 1.9-2.4.7-2.4.7-3.9V74c-.1-1.5-.3-2.8-.7-3.9zm17 19.1V67.5h-7.4v-5.3h21.3v5.3h-7.4v21.8h-6.5v-.1zm23 0V67.5h-7.4v-5.3h21.3v5.3h-7.4v21.8h-6.5v-.1zm38.9-5.3c-.9 1.9-2.3 3.3-4.1 4.3s-4 1.5-6.5 1.5-4.7-.5-6.5-1.5-3.2-2.5-4.1-4.3c-.9-1.9-1.4-4.1-1.4-6.6v-3.2c0-2.6.5-4.8 1.4-6.7.9-1.9 2.3-3.3 4.1-4.3 1.8-1 4-1.5 6.5-1.5 2.6 0 4.7.5 6.5 1.5 1.8 1 3.2 2.5 4.1 4.3.9 1.9 1.4 4.1 1.4 6.6v3.2c.1 2.6-.4 4.8-1.4 6.7zm-5.9-13.8c-.5-1.1-1.1-1.8-1.9-2.4-.8-.5-1.7-.8-2.8-.8s-2 .3-2.8.8-1.4 1.3-1.9 2.4-.7 2.4-.7 3.9v3.3c0 1.6.2 2.9.7 3.9s1.1 1.9 1.9 2.4c.8.5 1.8.8 2.8.8 1.1 0 2-.3 2.8-.8s1.4-1.3 1.9-2.4.7-2.4.7-3.9V74c0-1.5-.2-2.8-.7-3.9zm35.2 3.8 9.8 15.3h-7.7l-6.8-11L247 81v8.2h-6.5V62.1h6.5v11.5h.3l9.3-11.5h7l-9.5 11.8zm30.1-10.7c1.5.7 2.6 1.8 3.4 3.1s1.2 2.9 1.2 4.7c0 1.4-.3 2.6-.8 3.6s-1.1 1.9-1.9 2.6c-.7.7-1.5 1.1-2.2 1.4l5.4 10.6H282l-4.6-9.7h-3.8v9.7h-6.4V62.1h11.5c2.2 0 4 .4 5.5 1.1zm-6.5 11.7c1.3 0 2.3-.3 3.1-1s1.2-1.6 1.2-2.9-.4-2.3-1.2-3c-.8-.7-1.8-1-3-1h-4.1v7.9h4zm13.7 14.3 8.7-27.1h7.9l8.7 27.1h-6.9l-1.8-6.3h-8.4l-1.8 6.3h-6.4zM303.8 68l-2.9 10.3h6L304.1 68h-.3zm31.3 15c.9-.9 1.3-2.2 1.3-3.9v-17h6.5v17.7c0 2-.5 3.7-1.4 5.2s-2.2 2.6-3.9 3.4c-1.7.8-3.7 1.2-6 1.2s-4.3-.4-6-1.2c-1.7-.8-3-2-3.9-3.4-.9-1.5-1.4-3.2-1.4-5.2V62.1h6.5v17c0 1.7.4 3 1.3 3.9s2.1 1.3 3.5 1.3 2.6-.5 3.5-1.3zm18.7-1.5c.1.4.2.9.4 1.3s.6.7 1 1 .9.5 1.5.7 1.2.3 2 .3c1 0 1.9-.1 2.5-.4.7-.3 1.1-.6 1.5-1.1s.5-1 .5-1.6c0-.8-.3-1.5-1-1.9-.7-.5-1.7-.8-3-1.1l-3.8-.8c-1.4-.3-2.7-.8-3.8-1.4-1.1-.6-1.9-1.5-2.5-2.5s-.9-2.3-.9-3.8c0-1.7.4-3.2 1.3-4.5s2.1-2.2 3.7-2.9 3.4-1 5.5-1c2.3 0 4.2.4 5.7 1.1 1.5.7 2.7 1.7 3.5 2.9.8 1.2 1.2 2.5 1.3 3.9h-6c-.1-.5-.3-1-.6-1.5s-.8-.8-1.5-1.1c-.6-.3-1.4-.4-2.3-.4-1.3 0-2.3.3-3 .9s-1 1.3-1 2.2c0 .7.3 1.3 1 1.8.6.5 1.5.8 2.7 1l3.9.8c1.4.3 2.6.7 3.8 1.3 1.1.6 2 1.4 2.7 2.5.7 1 1 2.4 1 4 0 1.7-.4 3.2-1.3 4.6s-2.1 2.3-3.7 3.1c-1.6.7-3.7 1.1-6.1 1.1-1.9 0-3.5-.2-4.9-.7s-2.5-1.1-3.4-1.8c-.9-.8-1.5-1.7-1.9-2.6-.4-1-.7-2-.7-3.1h5.9v-.3zm39 7.7h-18.2V62.1h18.2v5.2h-11.7v5.9h11V78h-11v6h11.7v5.2zM141.4 52.9h-11.6V33.3h11.6v1.9h-9.5v6.7h8.9v1.9h-8.9V51h9.5v1.9zm4.7-13.4c.5-.7 1.2-1.1 2-1.5s1.7-.5 2.7-.5c1.1 0 2 .2 2.8.6.8.4 1.4.9 1.8 1.5.4.6.6 1.3.6 2.1h-2c0-.4-.2-.7-.4-1.1-.2-.4-.6-.7-1.1-.9s-1.1-.4-1.9-.4c-.9 0-1.7.2-2.4.6-.6.4-.9 1-.9 1.8 0 .5.1.9.3 1.1.2.3.5.5.9.7s.8.3 1.2.4c.4.1.9.2 1.4.3.9.2 1.8.4 2.6.7s1.4.7 1.9 1.2.7 1.3.7 2.3-.3 1.8-.8 2.5-1.2 1.2-2.1 1.5c-.9.4-1.9.5-3 .5s-2.1-.2-2.9-.5c-.8-.3-1.5-.8-1.9-1.4-.5-.6-.7-1.3-.7-2.2h2c.1.5.2.9.5 1.2.3.4.6.6 1.1.8s1.1.3 1.9.3c.8 0 1.5-.1 2.1-.3.5-.2.9-.5 1.2-.9s.4-.8.4-1.3c0-.6-.2-1.1-.5-1.4-.4-.3-.8-.6-1.4-.7-.6-.2-1.2-.3-1.9-.5-.9-.2-1.8-.5-2.6-.7-.8-.3-1.4-.7-1.8-1.2-.5-.5-.7-1.3-.7-2.2.2-.9.4-1.7.9-2.4zm14 4.5c0-1.3.2-2.5.7-3.4.5-1 1.2-1.7 2.1-2.2.9-.5 2-.8 3.2-.8s2.3.2 3.1.7c.8.4 1.4 1 1.9 1.7.4.7.6 1.4.7 2.1h-2.1c-.1-.3-.2-.7-.4-1.1-.2-.4-.6-.7-1.1-1s-1.2-.4-2-.4c-1.3 0-2.3.4-3 1.2s-1 2-1 3.4v2.5c0 1.4.4 2.5 1.1 3.3s1.7 1.2 3 1.2c.8 0 1.5-.1 2-.3s.9-.5 1.1-.9c.3-.4.4-.7.5-1.1h2.1c0 .7-.2 1.3-.7 2s-1 1.2-1.9 1.6c-.8.4-1.9.6-3.2.6-1.2 0-2.3-.3-3.2-.8s-1.6-1.3-2.1-2.2c-.5-1-.7-2.1-.7-3.4V44h-.1zm27.9 8.9h-2v-2.6h-.1c-.2.4-.4.8-.8 1.3-.4.4-.9.8-1.5 1.1s-1.4.4-2.3.4c-1 0-1.9-.2-2.7-.5s-1.4-.8-1.8-1.5c-.4-.7-.7-1.6-.7-2.8V37.8h2.1v9.9c0 .9.2 1.5.5 2.1.3.5.7.9 1.3 1.1.5.2 1.1.3 1.8.3.8 0 1.6-.2 2.2-.5.6-.4 1.1-.8 1.5-1.5s.5-1.2.5-1.9v-9.5h2.1v15.1h-.1zm7.5-.6c-.9-.5-1.7-1.3-2.1-2.3-.5-1-.7-2.1-.7-3.5v-2.3c0-1.4.3-2.5.8-3.5s1.2-1.8 2.1-2.3c.9-.5 2-.8 3.1-.8 1.2 0 2.2.3 3.1.8.9.5 1.6 1.3 2.1 2.3s.8 2.2.8 3.5v1.7h-10.1v.8c0 1.3.4 2.4 1.1 3.3s1.7 1.3 3.1 1.3c.7 0 1.2-.1 1.7-.3s.9-.4 1.2-.7.5-.6.6-.9h2.2c0 .4-.2.8-.5 1.2s-.6.9-1.1 1.3c-.5.4-1 .7-1.7 1s-1.5.4-2.4.4c-1.2-.2-2.4-.4-3.3-1zm7.2-8v-.2c0-.9-.2-1.7-.5-2.4s-.8-1.2-1.4-1.6c-.6-.4-1.3-.6-2.1-.6s-1.5.2-2.1.6c-.6.4-1.1.9-1.4 1.6-.3.7-.5 1.5-.5 2.4v.2h8zm6.7-12.1h2.1v20.7h-2.1V32.2zm7.9 19.7c-.9-.8-1.4-2-1.4-3.3s.4-2.4 1.3-3.2c.9-.8 2.2-1.2 3.9-1.2h4.1v-1.6c0-1.1-.3-1.8-.9-2.3s-1.5-.7-2.5-.7c-.7 0-1.3.1-1.7.3s-.8.4-1 .7-.4.6-.5 1h-2c0-.6.2-1.1.5-1.6s.6-.9 1.1-1.2 1-.6 1.7-.7c.6-.2 1.4-.2 2.2-.2 1 0 1.9.2 2.7.5s1.5.8 2 1.6c.5.7.7 1.7.7 2.8v10.4h-2v-2.1h-.1c-.2.4-.6.8-1 1.1s-.9.6-1.5.9c-.6.2-1.2.3-2 .3-1.5-.3-2.6-.7-3.6-1.5zm6.1-1.1c.6-.3 1.1-.7 1.4-1.3.3-.5.5-1.1.5-1.8v-1.8h-4.1c-1.1 0-1.9.2-2.4.7s-.7 1.1-.7 1.8c0 .9.3 1.7 1 2.1s1.4.7 2.3.7c.7.1 1.4-.1 2-.4zm20.1 2.1V35.2h-6.1v-1.9h14.3v1.9h-6.1v17.7h-2.1zm12-.6c-.9-.5-1.7-1.3-2.1-2.3-.5-1-.7-2.1-.7-3.5v-2.3c0-1.4.3-2.5.8-3.5s1.2-1.8 2.1-2.3c.9-.5 2-.8 3.1-.8 1.2 0 2.2.3 3.1.8s1.6 1.3 2.1 2.3.8 2.2.8 3.5v1.7h-10.1v.8c0 1.3.4 2.4 1.1 3.3.7.9 1.7 1.3 3.1 1.3.7 0 1.2-.1 1.7-.3s.9-.4 1.2-.7.5-.6.6-.9h2.2c0 .4-.2.8-.5 1.2s-.6.9-1.1 1.3c-.5.4-1 .7-1.7 1-.7.2-1.5.4-2.4.4-1.3-.2-2.4-.4-3.3-1zm7.1-8v-.2c0-.9-.2-1.7-.5-2.4s-.8-1.2-1.4-1.6c-.6-.4-1.3-.6-2.1-.6s-1.5.2-2.1.6c-.6.4-1.1.9-1.4 1.6-.3.7-.5 1.5-.5 2.4v.2h8zm-1.7-14h2.1l-4 5h-1.6l3.5-5zm7.6 13.7c0-1.3.2-2.5.7-3.4s1.2-1.7 2.1-2.2 2-.8 3.2-.8 2.3.2 3.1.7c.8.4 1.4 1 1.9 1.7.4.7.6 1.4.7 2.1h-2.1c-.1-.3-.2-.7-.4-1.1-.2-.4-.6-.7-1.1-1s-1.2-.4-2-.4c-1.3 0-2.3.4-3 1.2s-1 2-1 3.4v2.5c0 1.4.4 2.5 1.1 3.3s1.7 1.2 3 1.2c.8 0 1.5-.1 2-.3s.9-.5 1.1-.9.4-.7.5-1.1h2.1c0 .7-.2 1.3-.7 2-.4.7-1 1.2-1.9 1.6-.8.4-1.9.6-3.2.6-1.2 0-2.3-.3-3.2-.8-.9-.5-1.6-1.3-2.1-2.2s-.7-2.1-.7-3.4V44h-.1zm16.1-6.2h2.1v2.8h.1c.1-.4.4-.9.7-1.3.3-.5.8-.9 1.4-1.2s1.5-.5 2.5-.5c1.5 0 2.8.4 3.7 1.2.9.8 1.4 2.1 1.4 3.8v10.3h-2.1v-9.6c0-.8-.1-1.5-.4-2.1s-.7-1-1.2-1.3-1.2-.5-1.9-.5c-1 0-1.8.2-2.4.7s-1.1 1.1-1.4 1.8c-.3.8-.5 1.6-.5 2.5v8.5h-2.1l.1-15.1zm17.5-5.8c.3-.3.7-.5 1.1-.5.5 0 .9.2 1.2.5s.5.7.5 1.1-.2.8-.5 1.1-.7.5-1.2.5c-.4 0-.8-.2-1.1-.5s-.5-.7-.5-1.1.2-.7.5-1.1zm.1 5.8h2.1v15h-2.1v-15zm7 6.2c0-1.3.2-2.5.7-3.4s1.2-1.7 2.1-2.2 2-.8 3.2-.8 2.3.2 3.1.7c.8.4 1.4 1 1.9 1.7.4.7.6 1.4.7 2.1h-2.1c-.1-.3-.2-.7-.4-1.1-.2-.4-.6-.7-1.1-1s-1.2-.4-2-.4c-1.3 0-2.3.4-3 1.2s-1 2-1 3.4v2.5c0 1.4.4 2.5 1.1 3.3s1.7 1.2 3 1.2c.8 0 1.5-.1 2-.3s.9-.5 1.1-.9.4-.7.5-1.1h2.1c0 .7-.2 1.3-.7 2-.4.7-1 1.2-1.9 1.6-.8.4-1.9.6-3.2.6-1.2 0-2.3-.3-3.2-.8-.9-.5-1.6-1.3-2.1-2.2s-.7-2.1-.7-3.4V44h-.1zm16.7 7.9c-.9-.8-1.4-2-1.4-3.3s.4-2.4 1.3-3.2 2.2-1.2 3.9-1.2h4.1v-1.6c0-1.1-.3-1.8-.9-2.3s-1.5-.7-2.5-.7c-.7 0-1.3.1-1.7.3-.4.2-.8.4-1 .7s-.4.6-.5 1h-2c0-.6.2-1.1.5-1.6s.6-.9 1.1-1.2 1-.6 1.7-.7c.6-.2 1.4-.2 2.2-.2 1 0 1.9.2 2.7.5.8.3 1.5.8 2 1.6.5.7.7 1.7.7 2.8v10.4h-2v-2.1h-.1c-.2.4-.6.8-1 1.1s-.9.6-1.5.9c-.6.2-1.2.3-2 .3-1.5-.3-2.7-.7-3.6-1.5zm6-1.1c.6-.3 1.1-.7 1.4-1.3.3-.5.5-1.1.5-1.8v-1.8h-4.1c-1.1 0-1.9.2-2.4.7s-.7 1.1-.7 1.8c0 .9.3 1.7 1 2.1s1.4.7 2.3.7c.8.1 1.4-.1 2-.4z"/>
</svg>
